<svg xmlns="http://www.w3.org/2000/svg" role="img" viewBox="0 0 1200 360">
  <title>Cobsidian banner</title>
  <desc>Glassmorphism banner for Cobsidian. Turn AI conversations into linked Obsidian knowledge, safely.</desc>
  <defs>
    <linearGradient id="surface" x1="0" x2="1" y1="0" y2="1">
      <stop offset="0%" stop-color="#07111f"/>
      <stop offset="45%" stop-color="#12293d"/>
      <stop offset="100%" stop-color="#071018"/>
    </linearGradient>
    <linearGradient id="glass" x1="0" x2="1" y1="0" y2="1">
      <stop offset="0%" stop-color="#ffffff" stop-opacity="0.30"/>
      <stop offset="52%" stop-color="#b8f7ff" stop-opacity="0.12"/>
      <stop offset="100%" stop-color="#ffffff" stop-opacity="0.08"/>
    </linearGradient>
    <linearGradient id="accent" x1="0" x2="1" y1="0" y2="0">
      <stop offset="0%" stop-color="#88f7ff"/>
      <stop offset="48%" stop-color="#a7f3d0"/>
      <stop offset="100%" stop-color="#c4b5fd"/>
    </linearGradient>
    <radialGradient id="orbA" cx="28%" cy="18%" r="48%">
      <stop offset="0%" stop-color="#67e8f9" stop-opacity="0.42"/>
      <stop offset="100%" stop-color="#67e8f9" stop-opacity="0"/>
    </radialGradient>
    <radialGradient id="orbB" cx="84%" cy="24%" r="44%">
      <stop offset="0%" stop-color="#a78bfa" stop-opacity="0.36"/>
      <stop offset="100%" stop-color="#a78bfa" stop-opacity="0"/>
    </radialGradient>
    <filter id="soft-shadow" x="-10%" y="-20%" width="120%" height="150%">
      <feDropShadow dx="0" dy="24" stdDeviation="24" flood-color="#000000" flood-opacity="0.34"/>
    </filter>
    <filter id="glow" x="-35%" y="-60%" width="170%" height="220%">
      <feGaussianBlur stdDeviation="4" result="blur"/>
      <feMerge>
        <feMergeNode in="blur"/>
        <feMergeNode in="SourceGraphic"/>
      </feMerge>
    </filter>
    <pattern id="grid" width="48" height="48" patternUnits="userSpaceOnUse">
      <path d="M 48 0 L 0 0 0 48" fill="none" stroke="#d7fbff" stroke-opacity="0.075" stroke-width="1"/>
    </pattern>
    <style>
      .title {
        fill: url(#accent);
        font-family: Inter, ui-sans-serif, system-ui, -apple-system, BlinkMacSystemFont, "Segoe UI", Arial, sans-serif;
        font-size: 88px;
        font-weight: 850;
        letter-spacing: 1px;
      }
      .subtitle {
        fill: #d8f7ff;
        font-family: Inter, ui-sans-serif, system-ui, -apple-system, BlinkMacSystemFont, "Segoe UI", Arial, sans-serif;
        font-size: 26px;
        font-weight: 500;
      }
      .chip-text {
        fill: #e9feff;
        font-family: Inter, ui-sans-serif, system-ui, -apple-system, BlinkMacSystemFont, "Segoe UI", Arial, sans-serif;
        font-size: 17px;
        font-weight: 700;
      }
      .micro {
        fill: #9ee7f2;
        font-family: "SFMono-Regular", Consolas, "Liberation Mono", monospace;
        font-size: 14px;
        opacity: 0.82;
      }
      .glass-panel {
        fill: url(#glass);
        stroke: #ffffff;
        stroke-opacity: 0.32;
        stroke-width: 1.2;
      }
      .circuit-line {
        fill: none;
        stroke: #8df6ff;
        stroke-linecap: round;
        stroke-opacity: 0.38;
        stroke-width: 2;
      }
      .node {
        fill: #d9fffb;
        filter: url(#glow);
      }
    </style>
  </defs>
  <rect width="1200" height="360" rx="34" fill="url(#surface)"/>
  <rect width="1200" height="360" rx="34" fill="url(#orbA)"/>
  <rect width="1200" height="360" rx="34" fill="url(#orbB)"/>
  <rect width="1200" height="360" rx="34" fill="url(#grid)" opacity="0.95"/>
  <path d="M150 118 C235 70 314 88 395 124 S563 166 652 112 841 46 1015 106" class="circuit-line"/>
  <path d="M750 244 C829 199 910 208 970 245 S1076 288 1134 236" class="circuit-line"/>
  <circle cx="151" cy="118" r="5" class="node"/>
  <circle cx="395" cy="124" r="5" class="node"/>
  <circle cx="652" cy="112" r="5" class="node"/>
  <circle cx="1015" cy="106" r="5" class="node"/>
  <circle cx="970" cy="245" r="5" class="node"/>
  <circle cx="1134" cy="236" r="5" class="node"/>
  <g filter="url(#soft-shadow)">
    <rect x="78" y="58" width="1044" height="244" rx="28" class="glass-panel"/>
    <rect x="100" y="82" width="1000" height="196" rx="22" fill="#071421" fill-opacity="0.34" stroke="#bffcff" stroke-opacity="0.16"/>
  </g>
  <g transform="translate(132 115)">
    <rect x="0" y="-26" width="138" height="34" rx="17" fill="#a7f3d0" fill-opacity="0.14" stroke="#a7f3d0" stroke-opacity="0.42"/>
    <text x="20" y="-4" class="micro">AGENT SAFE</text>
    <text x="0" y="80" class="title">Cobsidian</text>
    <text x="4" y="126" class="subtitle">Turn AI conversations into linked Obsidian knowledge, safely.</text>
  </g>
  <g transform="translate(742 111)">
    <rect x="0" y="0" width="286" height="142" rx="22" fill="#ffffff" fill-opacity="0.10" stroke="#ffffff" stroke-opacity="0.24"/>
    <path d="M40 70 L88 36 L136 70 L184 38 L238 72" fill="none" stroke="url(#accent)" stroke-width="5" stroke-linecap="round" stroke-linejoin="round"/>
    <circle cx="40" cy="70" r="8" fill="#88f7ff"/>
    <circle cx="88" cy="36" r="8" fill="#a7f3d0"/>
    <circle cx="136" cy="70" r="8" fill="#c4b5fd"/>
    <circle cx="184" cy="38" r="8" fill="#88f7ff"/>
    <circle cx="238" cy="72" r="8" fill="#a7f3d0"/>
    <text x="32" y="114" class="micro">dry-run / backlinks / vault lint</text>
  </g>
  <g transform="translate(132 270)">
    <rect x="0" y="0" width="132" height="38" rx="19" fill="#67e8f9" fill-opacity="0.14" stroke="#67e8f9" stroke-opacity="0.35"/>
    <text x="22" y="25" class="chip-text">dry-run first</text>
    <rect x="154" y="0" width="116" height="38" rx="19" fill="#a7f3d0" fill-opacity="0.13" stroke="#a7f3d0" stroke-opacity="0.34"/>
    <text x="180" y="25" class="chip-text">wiki links</text>
    <rect x="292" y="0" width="116" height="38" rx="19" fill="#c4b5fd" fill-opacity="0.13" stroke="#c4b5fd" stroke-opacity="0.34"/>
    <text x="319" y="25" class="chip-text">MCP ready</text>
  </g>
</svg>
